<svg xmlns="http://www.w3.org/2000/svg" width="256" height="256"><path fill-opacity=".016" d="M0 128.004v128.004l128.25-.254 128.25-.254.254-127.75L257.008 0H0v128.004m.485.496c0 70.4.119 99.053.265 63.672.146-35.38.146-92.98 0-128C.604 29.153.485 58.1.485 128.5" fill="#FCBA03" fill-rule="evenodd"/><path fill-opacity=".263" d="M61 87.817c-12.345 4.13-20.257 10.878-25.721 21.934-3.65 7.384-3.779 8.005-3.779 18.197 0 9.458.29 11.174 2.798 16.552 7.834 16.803 28.294 28.114 44.418 24.558 3.181-.702 12.084-3.647 19.784-6.545 26.512-9.979 31.31-10.024 56.942-.534 19.747 7.31 25.577 8.595 33.13 7.302 14.251-2.442 26.639-11.744 33-24.781 2.67-5.472 2.928-6.924 2.928-16.5 0-9.441-.288-11.124-2.857-16.685-3.992-8.639-14.948-19.186-23.077-22.214-13.082-4.873-20.049-4.078-44.125 5.039L140.5 99.418l-12.5.034-12.5.034-17-6.317c-19.931-7.407-27.942-8.55-37.5-5.352m.844 8.517c-11.137 4.161-18.19 11.766-21.402 23.079-4.167 14.678 3.455 31.46 17.397 38.307 4.795 2.355 6.884 2.773 13.661 2.737 7.264-.039 9.334-.557 22.5-5.633 18.947-7.304 23.067-8.15 37.05-7.61 11.18.431 11.887.602 29.95 7.219 17.835 6.533 18.748 6.757 25.396 6.218 20.482-1.66 34.196-20.846 29.17-40.81-3.657-14.522-14.738-23.781-29.47-24.625-7.216-.413-8.347-.161-22.596 5.03-19.202 6.995-26.373 8.757-35.564 8.739-9.471-.019-16.062-1.604-33.436-8.043-15.626-5.792-25.688-7.212-32.656-4.608m2.399 12.317c-6.255 3.084-11.275 9.474-12.724 16.2-2.323 10.778 9.278 24.105 20.981 24.105 12.539 0 23.885-13.946 20.547-25.255-1.986-6.73-4.901-10.576-10.404-13.732-5.965-3.422-13.096-3.932-18.4-1.318M177 107.727c-.825.313-3.458 1.906-5.85 3.538-4.64 3.167-9.122 10.943-9.14 15.859-.014 3.611 2.421 10.188 5.126 13.845 2.885 3.903 11.158 8.031 16.092 8.031 9.727 0 18.61-7.697 21.173-18.346 1.727-7.175-4.554-17.743-13.101-22.044-3.089-1.554-11.211-2.055-14.3-.883m-108.555 8.381c-9.108 2.528-11.347 15.891-3.675 21.926 3.131 2.463 11.744 2.695 15.013.405 5.174-3.624 6.681-11.525 3.267-17.125-2.965-4.862-8.604-6.872-14.605-5.206m111.441-.365c-9.042 1.258-11.808 16.24-4.116 22.291 3.052 2.4 10.062 2.621 14.263.449 5.751-2.974 7.671-11.177 4.017-17.169-2.782-4.563-7.649-6.477-14.164-5.571" fill="#FCBA03" fill-rule="evenodd"/><path fill-opacity=".643" d="M57.892 89.354c-10.484 4.313-18.135 11.652-23.088 22.146-3.016 6.389-3.304 7.829-3.304 16.5 0 8.575.306 10.145 3.138 16.123C41.913 159.478 56.154 169 71.841 169c6.903 0 6.652.072 37.159-10.631 8.037-2.819 10.886-3.335 18.5-3.345 7.984-.01 10.299.447 20.5 4.048 25.589 9.032 28.809 9.928 35.75 9.938 8.792.013 17.547-3.069 24.73-8.707 11.072-8.69 15.853-18.529 15.939-32.803.05-8.189-.249-9.652-3.321-16.23-4.094-8.768-12.311-17.079-20.817-21.054-4.77-2.23-7.442-2.754-15.281-2.996-8.783-.271-10.254-.021-19.5 3.316-26.172 9.443-27.455 9.779-37.5 9.814-8.095.028-10.831-.428-18.5-3.083l-19.324-6.692c-13.035-4.514-23.331-4.903-32.284-1.221m6.518 5.723c-6.324 1.511-14.462 6.92-18.535 12.32-12.663 16.788-6.944 41.547 11.702 50.664 3.515 1.719 7.087 2.512 12.491 2.771 7.112.341 8.41.047 21.5-4.867 20.48-7.689 25.596-8.965 35.949-8.965 10.56 0 17.861 1.801 35.108 8.661 11.146 4.433 12.458 4.726 21.375 4.781 8.615.053 10.046-.219 15.365-2.913 17.743-8.991 23.085-33.792 10.79-50.092-7.084-9.39-20.294-14.822-30.779-12.655-2.819.583-11.157 3.307-18.529 6.053-13.884 5.171-25.879 8.165-32.717 8.165-7.257 0-18.485-2.802-34.13-8.517-16.101-5.881-22.618-7.072-29.59-5.406m1.09 13.312c-12.67 5.535-17.366 20.123-9.936 30.866 4.164 6.021 12.712 10.231 18.891 9.304 10.146-1.521 18.57-10.854 18.523-20.521-.068-13.996-15.37-24.939-27.478-19.649m111 0c-15.24 6.657-18.232 26.273-5.422 35.552 8.276 5.996 15.529 6.205 23.69.684 8.479-5.737 11.487-16.063 7.339-25.196-4.309-9.486-16.818-14.88-25.607-11.04m-110.185 8.075c-5.863 2.549-8.576 12.436-4.937 17.989 2.718 4.149 6.359 5.933 11.938 5.849 4.52-.068 5.459-.48 8.387-3.675 2.722-2.971 3.297-4.393 3.297-8.162 0-10.801-8.659-16.362-18.685-12.001m110.448.101c-3.644 1.978-5.763 6.334-5.763 11.851 0 11.755 14.732 16.634 22.467 7.441 3.062-3.639 3.442-10.51.827-14.937-3.184-5.39-11.717-7.51-17.531-4.355" fill="#FCBA03" fill-rule="evenodd"/><path fill-opacity=".97" d="M59 89.188c-10.482 3.97-17.883 10.675-23.022 20.856-11.079 21.947-.1 48.107 23.719 56.513 12.159 4.291 16.041 3.633 47.803-8.101 8.953-3.307 11.047-3.702 20-3.77 8.962-.069 10.934.268 19 3.248 27.504 10.16 31.621 11.299 39 10.787 10.349-.719 17.704-4.005 25.573-11.429 4.695-4.428 7.49-8.102 9.534-12.529 2.612-5.655 2.893-7.288 2.893-16.815 0-10.214-.122-10.8-3.824-18.289-4.962-10.041-13.34-17.335-23.754-20.684-11.215-3.606-18.615-2.647-39.422 5.111l-17 6.338-11.5-.024c-9.1-.018-12.752-.464-17.5-2.135a6179.9 6179.9 0 01-18.817-6.689C76.567 86.179 68.498 85.59 59 89.188m2.332 6.663C49.517 99.934 41.49 109.49 39.123 122.29c-3.709 20.064 12.152 39.244 32.377 39.153 5.987-.027 9.004-.795 20.845-5.303 31.442-11.969 39.358-12.036 69.155-.577 13.341 5.13 15.829 5.773 22.5 5.817 6.038.04 8.596-.458 13.12-2.551 7.59-3.511 13.256-8.859 16.6-15.668 2.477-5.044 2.78-6.75 2.78-15.661 0-9.164-.242-10.437-2.9-15.233-3.854-6.957-8.765-11.709-15.532-15.033-4.794-2.354-6.75-2.725-14.068-2.666-7.686.061-9.65.519-20.5 4.784-16.559 6.509-25.251 8.648-35.139 8.648-10.822 0-15.497-1.084-35.03-8.12-18.111-6.524-22.998-7.139-31.999-4.029m6.432 12.123c-8.476 2.62-15.757 11.657-15.733 19.526.014 4.222 2.582 10.545 5.752 14.162 4.724 5.389 14.88 7.938 21.541 5.405 3.994-1.519 9.856-7.255 11.811-11.558 2.554-5.622 2.305-10.282-.885-16.575-4.232-8.348-14.596-13.4-22.486-10.96m109.984.453c-8.445 3.013-13.523 9.4-14.522 18.262-.69 6.123 3.544 14.503 9.122 18.05 5.715 3.636 13.823 4.234 19.325 1.428 7.349-3.749 12.349-11.542 12.299-19.167-.047-7.306-7.313-16.133-15.208-18.477-6.09-1.809-6.214-1.81-11.016-.096m-114.269 9.894c-4.091 4.091-5.281 9.284-3.313 14.456 3.965 10.418 19.382 11.018 24.164.94 2.031-4.279 2.096-6.762.291-11.081C82.41 117.344 78.617 115 72.265 115c-4.856 0-5.835.37-8.786 3.321m111 0c-4.091 4.091-5.281 9.284-3.313 14.456 4.6 12.086 23.873 10.259 24.898-2.36.526-6.47-.104-8.657-3.464-12.017-3.071-3.071-3.951-3.4-9.1-3.4-5.122 0-6.036.336-9.021 3.321" fill="#FCBA03" fill-rule="evenodd"/></svg>