<?xml version="1.0" encoding="utf-8"?>
<!-- Generator: Adobe Illustrator 22.1.0, SVG Export Plug-In . SVG Version: 6.00 Build 0)  -->
<svg version="1.1" id="Layer_1" xmlns="http://www.w3.org/2000/svg" xmlns:xlink="http://www.w3.org/1999/xlink" x="0px" y="0px"
	 viewBox="0 0 32 32" style="enable-background:new 0 0 32 32;" xml:space="preserve">
<title>open-collective</title>
<path d="M29.1,6.9c3.8,5.5,3.8,12.7,0,18.2L25,21c1.7-3.1,1.7-6.9,0-9.9L29.1,6.9z M25.1,2.9L21,7c-3.2-1.7-7.1-1.7-10.2,0.2
	c-3.1,1.8-5,5.2-5,8.8c0,3.6,1.9,7,5,8.8s7,1.9,10.2,0.2l4.1,4.1c-4.9,3.4-11.3,3.8-16.5,1S0,21.9,0,16C0,10,3.3,4.6,8.6,1.8
	C13.8-0.9,20.2-0.5,25.1,2.9L25.1,2.9z M29.1,6.9c3.8,5.5,3.8,12.7,0,18.2L25,21c1.7-3.1,1.7-6.9,0-9.9L29.1,6.9z"/>
</svg>
